<?xml version="1.0" standalone="no"?><!DOCTYPE svg PUBLIC "-//W3C//DTD SVG 1.1//EN" "http://www.w3.org/Graphics/SVG/1.1/DTD/svg11.dtd"><svg t="1565010129680" class="icon" viewBox="0 0 1024 1024" version="1.1" xmlns="http://www.w3.org/2000/svg" p-id="4797" xmlns:xlink="http://www.w3.org/1999/xlink" width="200" height="200"><defs><style type="text/css"></style></defs><path d="M501.394286 1.024c141.604571 0 256.438857 107.958857 256.438857 241.152 0 133.266286-114.834286 241.225143-256.438857 241.225143-141.604571 0-256.365714-107.958857-256.365715-241.225143C245.028571 108.982857 359.862857 1.024 501.394286 1.024z m0 0c141.604571 0 256.438857 107.958857 256.438857 241.152 0 133.266286-114.834286 241.225143-256.438857 241.225143-141.604571 0-256.365714-107.958857-256.365715-241.225143C245.028571 108.982857 359.862857 1.024 501.394286 1.024zM405.284571 563.858286h213.723429c182.857143 0 331.190857 139.410286 331.190857 311.588571v19.968c0 67.876571-148.333714 70.436571-331.190857 70.436572H405.211429c-182.930286 0-331.190857-0.073143-331.190858-70.436572v-20.041143c0-172.105143 148.260571-311.588571 331.190858-311.588571z" p-id="4798" fill="#515151"></path></svg>