<?xml version="1.0" standalone="no"?><!DOCTYPE svg PUBLIC "-//W3C//DTD SVG 1.1//EN" "http://www.w3.org/Graphics/SVG/1.1/DTD/svg11.dtd"><svg t="1563456062148" class="icon" viewBox="0 0 1024 1024" version="1.1" xmlns="http://www.w3.org/2000/svg" p-id="2155" xmlns:xlink="http://www.w3.org/1999/xlink" width="200" height="200"><defs><style type="text/css"></style></defs><path d="M513.125 361.286c-73.794 0-133.315 59.574-133.315 133.316 0 73.792 59.522 133.366 133.315 133.366 73.777 0 133.315-59.574 133.315-133.366 0.001-73.742-59.538-133.316-133.315-133.316m0 355.55c-122.677 0-222.2-99.557-222.2-222.234 0-122.626 99.522-222.182 222.2-222.182 122.659 0 222.214 99.557 222.214 222.182 0.001 122.677-99.554 222.233-222.214 222.233m0-555.531c-222.2 0-411.969 138.21-488.865 333.299 76.897 195.122 266.666 333.33 488.865 333.33 222.214 0 411.968-138.21 488.863-333.331-76.895-195.088-266.648-333.298-488.863-333.298" p-id="2156"></path></svg>