<?xml version="1.0" standalone="no"?><!DOCTYPE svg PUBLIC "-//W3C//DTD SVG 1.1//EN" "http://www.w3.org/Graphics/SVG/1.1/DTD/svg11.dtd"><svg t="1563456086782" class="icon" viewBox="0 0 1024 1024" version="1.1" xmlns="http://www.w3.org/2000/svg" p-id="4077" xmlns:xlink="http://www.w3.org/1999/xlink" width="200" height="200"><defs><style type="text/css"></style></defs><path d="M369.563 103.594c98.611-0.279 197.223-0.279 295.834 0.043V39.999h43.827v63.788c33.615 0.15 67.253 0.321 100.868 0.535 5.96 0.108 11.921 0.43 17.838 1.094 12.995 1.457 25.814 4.33 38.152 8.595 22.658 7.802 43.586 20.212 61.182 36.223 20.139 18.348 35.763 41.303 45.23 66.574 4.755 12.668 7.933 25.892 9.51 39.31 0.68 5.787 1.009 11.617 1.118 17.447a41886.877 41886.877 0 0 1 0 540.266c-0.11 5.83-0.438 11.66-1.118 17.447-1.577 13.418-4.755 26.642-9.51 39.31-9.708 25.914-25.902 49.384-46.786 67.967-17.246 15.325-37.625 27.264-59.626 34.83-12.316 4.266-25.157 7.138-38.152 8.595-5.917 0.665-11.877 0.986-17.838 1.094a48487.704 48487.704 0 0 1-596.181 0c-5.96-0.108-11.921-0.43-17.838-1.094-12.995-1.457-25.814-4.33-38.151-8.595-24.653-8.487-47.246-22.441-65.72-40.51C74.235 915.3 60.232 893.93 51.51 870.588a167.537 167.537 0 0 1-9.247-37.145c-0.833-6.516-1.271-13.053-1.38-19.612a41111.21 41111.21 0 0 1 0-540.266c0.109-5.83 0.437-11.66 1.117-17.447a167.096 167.096 0 0 1 8.787-37.317c8.437-23.47 22.177-45.011 39.949-62.823 18.232-18.261 40.627-32.494 65.149-41.26 12.95-4.651 26.471-7.76 40.19-9.302 5.916-0.665 11.876-0.986 17.837-1.094 37.275-0.235 74.55-0.428 111.825-0.578V39.999h43.827v63.595z m295.834 42.075c-98.611-0.386-197.223 0.385-295.834 0.964v89.251h-43.827V146.87c-36.508 0.171-72.994 0.3-109.502 0.3-14.902 0.086-29.671 2.422-43.762 7.266a132.488 132.488 0 0 0-47.026 28.25c-14.55 13.568-25.88 30.394-32.783 48.87-5.106 13.653-7.692 28.035-7.955 42.546-1.183 180.282-3.484 360.606 0.022 540.844 0.46 13.975 3.002 27.757 7.933 40.896 6.18 16.547 15.91 31.766 28.334 44.519 13.499 13.846 30.153 24.713 48.451 31.53 13.872 5.143 28.51 7.844 43.323 8.294a16099.33 16099.33 0 0 0 598.46 0c14.814-0.45 29.453-3.15 43.324-8.295 18.298-6.816 34.952-17.683 48.451-31.53 12.425-12.752 22.155-27.97 28.334-44.518 4.93-13.139 7.473-26.92 7.933-40.896a13941.027 13941.027 0 0 0 1.118-476.735v12.582H84.686v-21.434H940.26c-0.285-18.97-0.613-37.938-0.986-56.907-0.46-14.49-3.221-28.808-8.48-42.375-6.772-17.405-17.488-33.309-31.118-46.32-13.258-12.667-29.233-22.548-46.632-28.785-13.433-4.801-27.524-7.309-41.811-7.76a9514.126 9514.126 0 0 0-102.008-1.307v89.98h-43.827V145.67zM402.434 779.472H249.038V629.434h153.396v150.038z m197.222 0H446.261V629.434h153.395v150.038zM380.52 650.868H270.952v107.17H380.52v-107.17z m87.654 0v107.17h109.568v-107.17H468.174zM402.434 608H249.038V457.962h153.396V608z m197.222 0H446.261V457.962h153.395V608z m197.222 0H643.483V457.962h153.395V608zM380.52 479.396H270.952v107.17H380.52v-107.17z m87.654 0v107.17h109.568v-107.17H468.174z m306.79 0H665.398v107.17h109.568v-107.17z" p-id="4078"></path></svg>